<mxfile host="app.diagrams.net" modified="2021-10-21T12:35:13.970Z" agent="5.0 (Windows NT 10.0; Win64; x64) AppleWebKit/537.36 (KHTML, like Gecko) Chrome/94.0.4606.81 Safari/537.36" etag="Mhyd0Im98RN20y89TjiI" version="15.5.8" type="github">
  <diagram id="_3mCGZZuLn7vnAQo4fiF" name="Page-1">
    <mxGraphModel dx="1207" dy="704" grid="1" gridSize="10" guides="1" tooltips="1" connect="1" arrows="1" fold="1" page="1" pageScale="1" pageWidth="827" pageHeight="1169" math="0" shadow="0">
      <root>
        <mxCell id="0" />
        <mxCell id="1" parent="0" />
        <mxCell id="EAJOksvlnSHBUVswpDBP-1" value="RSSFeed" style="swimlane;childLayout=stackLayout;horizontal=1;startSize=30;horizontalStack=0;rounded=1;fontSize=14;fontStyle=0;strokeWidth=2;resizeParent=0;resizeLast=1;shadow=0;dashed=0;align=center;" vertex="1" parent="1">
          <mxGeometry x="70" y="140" width="160" height="120" as="geometry" />
        </mxCell>
        <mxCell id="EAJOksvlnSHBUVswpDBP-2" value="+Pods(feeds) List&lt;Pods&gt;&#xa;+filterCategory(name)&#xa;+" style="align=left;strokeColor=none;fillColor=none;spacingLeft=4;fontSize=12;verticalAlign=top;resizable=0;rotatable=0;part=1;" vertex="1" parent="EAJOksvlnSHBUVswpDBP-1">
          <mxGeometry y="30" width="160" height="90" as="geometry" />
        </mxCell>
        <mxCell id="EAJOksvlnSHBUVswpDBP-3" value="PODS" style="swimlane;childLayout=stackLayout;horizontal=1;startSize=30;horizontalStack=0;rounded=1;fontSize=14;fontStyle=0;strokeWidth=2;resizeParent=0;resizeLast=1;shadow=0;dashed=0;align=center;" vertex="1" parent="1">
          <mxGeometry x="550" y="140" width="160" height="120" as="geometry" />
        </mxCell>
        <mxCell id="EAJOksvlnSHBUVswpDBP-4" value="+Episodes: List&lt;Episodes&gt;&#xa;+name&#xa;+frekvens&#xa;+Category" style="align=left;strokeColor=none;fillColor=none;spacingLeft=4;fontSize=12;verticalAlign=top;resizable=0;rotatable=0;part=1;" vertex="1" parent="EAJOksvlnSHBUVswpDBP-3">
          <mxGeometry y="30" width="160" height="90" as="geometry" />
        </mxCell>
        <mxCell id="EAJOksvlnSHBUVswpDBP-5" value="Category" style="swimlane;childLayout=stackLayout;horizontal=1;startSize=30;horizontalStack=0;rounded=1;fontSize=14;fontStyle=0;strokeWidth=2;resizeParent=0;resizeLast=1;shadow=0;dashed=0;align=center;" vertex="1" parent="1">
          <mxGeometry x="310" y="140" width="160" height="120" as="geometry" />
        </mxCell>
        <mxCell id="EAJOksvlnSHBUVswpDBP-6" value="+Pods: List&lt;pods&gt;&#xa;+name&#xa;+NewCategory()&#xa;+DelCategory()&#xa;+" style="align=left;strokeColor=none;fillColor=none;spacingLeft=4;fontSize=12;verticalAlign=top;resizable=0;rotatable=0;part=1;" vertex="1" parent="EAJOksvlnSHBUVswpDBP-5">
          <mxGeometry y="30" width="160" height="90" as="geometry" />
        </mxCell>
        <mxCell id="EAJOksvlnSHBUVswpDBP-8" value="Episode" style="swimlane;childLayout=stackLayout;horizontal=1;startSize=30;horizontalStack=0;rounded=1;fontSize=14;fontStyle=0;strokeWidth=2;resizeParent=0;resizeLast=1;shadow=0;dashed=0;align=center;" vertex="1" parent="1">
          <mxGeometry x="550" y="330" width="160" height="120" as="geometry" />
        </mxCell>
        <mxCell id="EAJOksvlnSHBUVswpDBP-9" value="+name&#xa;" style="align=left;strokeColor=none;fillColor=none;spacingLeft=4;fontSize=12;verticalAlign=top;resizable=0;rotatable=0;part=1;" vertex="1" parent="EAJOksvlnSHBUVswpDBP-8">
          <mxGeometry y="30" width="160" height="90" as="geometry" />
        </mxCell>
        <mxCell id="EAJOksvlnSHBUVswpDBP-10" style="edgeStyle=orthogonalEdgeStyle;rounded=0;orthogonalLoop=1;jettySize=auto;html=1;endArrow=diamondThin;endFill=0;" edge="1" parent="1" source="EAJOksvlnSHBUVswpDBP-4" target="EAJOksvlnSHBUVswpDBP-8">
          <mxGeometry relative="1" as="geometry" />
        </mxCell>
        <mxCell id="EAJOksvlnSHBUVswpDBP-11" style="edgeStyle=orthogonalEdgeStyle;rounded=0;orthogonalLoop=1;jettySize=auto;html=1;entryX=0;entryY=0.5;entryDx=0;entryDy=0;endArrow=diamondThin;endFill=0;" edge="1" parent="1" source="EAJOksvlnSHBUVswpDBP-6" target="EAJOksvlnSHBUVswpDBP-4">
          <mxGeometry relative="1" as="geometry" />
        </mxCell>
        <mxCell id="EAJOksvlnSHBUVswpDBP-12" style="edgeStyle=orthogonalEdgeStyle;rounded=0;orthogonalLoop=1;jettySize=auto;html=1;entryX=0;entryY=0.5;entryDx=0;entryDy=0;endArrow=diamondThin;endFill=0;" edge="1" parent="1" source="EAJOksvlnSHBUVswpDBP-2" target="EAJOksvlnSHBUVswpDBP-6">
          <mxGeometry relative="1" as="geometry" />
        </mxCell>
      </root>
    </mxGraphModel>
  </diagram>
</mxfile>
